<svg width="1200" height="400" viewBox="0 0 1200 400" fill="none" xmlns="http://www.w3.org/2000/svg">
  <title>XXD Panel 025</title>
  <desc>A Gestalt Morandi screenprint banner: one bird silhouette contains a second landscape reading through negative-space cutout and shared contour, with five-language documentation.</desc>
  <defs>
    <clipPath id="frame"><rect width="1200" height="400" rx="30"/></clipPath>
    <clipPath id="bird"><path d="M789 249C817 183 882 140 956 142C996 143 1030 158 1052 181C1073 175 1097 163 1119 144C1113 174 1102 198 1083 213C1093 228 1097 244 1095 263C1090 309 1042 337 974 333C909 329 849 303 789 249Z"/></clipPath>
    <pattern id="paper" width="29" height="25" patternUnits="userSpaceOnUse"><path d="M3 8L12 7M18 21L27 19M6 24L11 23" stroke="#354A43" stroke-opacity=".05" stroke-width=".8"/><circle cx="22" cy="6" r=".6" fill="#354A43" fill-opacity=".06"/></pattern>
    <pattern id="grain" width="8" height="8" patternUnits="userSpaceOnUse"><circle cx="2" cy="2" r=".7" fill="#F5EBDD" fill-opacity=".18"/><circle cx="6" cy="5" r=".45" fill="#F5EBDD" fill-opacity=".12"/></pattern>
  </defs>
  <g clip-path="url(#frame)">
    <rect width="1200" height="400" fill="#F5EBDD"/><rect width="1200" height="400" fill="url(#paper)"/><rect x="642" width="558" height="400" fill="#D7CDBD" fill-opacity=".22"/>
    <path d="M797 253C825 187 890 144 964 146C1004 147 1038 162 1060 185C1081 179 1105 167 1127 148C1121 178 1110 202 1091 217C1101 232 1105 248 1103 267C1098 313 1050 341 982 337C917 333 857 307 797 253Z" fill="#BF796E" fill-opacity=".28"/>
    <path d="M789 249C817 183 882 140 956 142C996 143 1030 158 1052 181C1073 175 1097 163 1119 144C1113 174 1102 198 1083 213C1093 228 1097 244 1095 263C1090 309 1042 337 974 333C909 329 849 303 789 249Z" fill="#667E73"/>
    <path d="M789 249C817 183 882 140 956 142C996 143 1030 158 1052 181C1073 175 1097 163 1119 144C1113 174 1102 198 1083 213C1093 228 1097 244 1095 263C1090 309 1042 337 974 333C909 329 849 303 789 249Z" fill="url(#grain)"/>
    <g clip-path="url(#bird)"><path d="M758 302L844 219L891 263L944 198L1000 258L1060 211L1142 306V361H758V302Z" fill="#F5EBDD"/><path d="M759 304L844 221L891 265L944 200L1000 260L1060 213L1140 305" stroke="#354A43" stroke-width="5" stroke-linejoin="round"/><circle cx="944" cy="198" r="23" fill="#D5A24A"/><path d="M752 309H1146" stroke="#354A43" stroke-width="3"/><path d="M818 286L843 260L866 285V309H818V286Z" fill="#BF796E"/><rect x="837" y="286" width="9" height="23" fill="#354A43"/></g>
    <circle cx="1010" cy="198" r="5.5" fill="#354A43"/><path d="M797 250C853 275 903 288 954 287" stroke="#F5EBDD" stroke-width="2.5" stroke-dasharray="3 8" stroke-linecap="round" opacity=".72"/>
    <text x="797" y="105" fill="#354A43" font-family="Arial, sans-serif" font-size="12" font-weight="800" letter-spacing="3.1">FIRST LOOK / SECOND LOOK</text><text x="797" y="126" fill="#354A43" fill-opacity=".62" font-family="Arial, sans-serif" font-size="9" font-weight="700" letter-spacing="2">SHARED CONTOUR · FIGURE / GROUND</text>
    <text x="1154" y="42" text-anchor="end" fill="#354A43" fill-opacity=".6" font-family="Arial, sans-serif" font-size="11" font-weight="700">中文 · EN · 日本語 · 한국어 ·</text><text x="1154" y="59" text-anchor="end" direction="rtl" fill="#354A43" fill-opacity=".6" font-family="Arial, sans-serif" font-size="11" font-weight="700">العربية</text>
  </g>
  <g transform="translate(64 54)"><text x="0" y="20" fill="#354A43" font-family="Arial, sans-serif" font-size="13" font-weight="800" letter-spacing="2.4">🦁 XXD / IMAGE SKILL</text><text x="0" y="111" fill="#354A43" font-family="Arial Black, Arial, sans-serif" font-size="72" font-weight="900" letter-spacing="-4">PANEL <tspan fill="#BF796E">025</tspan></text><text x="2" y="151" fill="#354A43" font-family="Arial, sans-serif" font-size="17" font-weight="800" letter-spacing=".9">GESTALT · MORANDI · SCREENPRINT</text><text x="2" y="191" fill="#354A43" font-family="sans-serif" font-size="18" font-weight="700">一眼主体 · 第二眼隐藏意象</text><text x="2" y="220" fill="#354A43" fill-opacity=".74" font-family="sans-serif" font-size="14" font-weight="600">一目で主体、二目で隠れた像 · 첫눈에는 주제, 두 번째에는 숨은 이미지</text><text x="2" y="249" fill="#354A43" fill-opacity=".74" font-family="Arial, sans-serif" font-size="14" font-weight="600">موضوع أولاً، وصورة خفية ثانياً</text></g>
  <g transform="translate(64 327)"><rect width="153" height="37" rx="7" fill="#354A43"/><text x="76.5" y="24" text-anchor="middle" fill="#F5EBDD" font-family="Courier New, monospace" font-size="12" font-weight="900">SOURCE-BOUND</text><rect x="165" width="102" height="37" rx="7" fill="#BF796E"/><text x="216" y="24" text-anchor="middle" fill="#F5EBDD" font-family="Courier New, monospace" font-size="12" font-weight="900">4 MODES</text><rect x="279" width="180" height="37" rx="7" fill="#91A79C"/><text x="369" y="24" text-anchor="middle" fill="#354A43" font-family="Courier New, monospace" font-size="12" font-weight="900">WALLPAPER PACK</text><rect x="471" width="147" height="37" rx="7" fill="#D5A24A"/><text x="544.5" y="24" text-anchor="middle" fill="#354A43" font-family="Courier New, monospace" font-size="12" font-weight="900">RASTER ONLY</text></g>
</svg>
